<?xml version="1.0" standalone="no"?>
<!DOCTYPE svg PUBLIC "-//W3C//DTD SVG 20010904//EN"
 "http://www.w3.org/TR/2001/REC-SVG-20010904/DTD/svg10.dtd">
<svg version="1.0" xmlns="http://www.w3.org/2000/svg"
 width="1000.000000pt" height="1000.000000pt" viewBox="0 0 1000.000000 1000.000000"
 preserveAspectRatio="xMidYMid meet">

<g transform="translate(0.000000,1000.000000) scale(0.100000,-0.100000)"
fill="#000000" stroke="none">
<path d="M8470 5453 l0 -347 46 44 c100 99 140 201 131 337 -4 63 -12 97 -34
145 -28 60 -115 168 -134 168 -5 0 -9 -146 -9 -347z"/>
<path d="M3185 5343 c-78 -20 -116 -110 -80 -187 47 -98 218 -86 253 18 34
104 -61 197 -173 169z"/>
<path d="M4555 4975 c-74 -20 -105 -33 -157 -67 -37 -23 -48 -36 -48 -56 0
-31 65 -112 90 -112 10 0 42 12 72 27 75 38 215 45 275 14 23 -11 50 -36 62
-54 20 -32 41 -127 28 -127 -3 0 -36 7 -74 16 -104 24 -270 16 -344 -18 -76
-35 -126 -88 -145 -156 -59 -203 115 -362 356 -323 78 13 138 41 189 91 l39
39 7 -39 c10 -59 25 -73 86 -77 30 -3 66 0 82 6 l27 11 0 270 c0 251 -2 274
-22 337 -18 56 -33 79 -83 130 -52 52 -72 64 -129 82 -80 25 -231 28 -311 6z
m275 -504 c30 -6 35 -11 33 -35 -6 -79 -100 -146 -207 -146 -76 0 -121 24
-131 70 -8 38 8 81 37 99 44 27 163 33 268 12z"/>
<path d="M1360 4955 c-9 -10 -11 -86 -8 -297 4 -269 5 -286 27 -342 30 -74 91
-137 157 -161 62 -22 387 -35 422 -16 20 11 22 20 22 100 0 59 -4 92 -13 99
-7 6 -77 12 -159 14 -228 5 -227 2 -227 354 -1 173 -4 243 -13 252 -18 18
-192 16 -208 -3z"/>
<path d="M2105 4953 c-15 -15 -16 -45 -13 -292 5 -305 11 -339 71 -427 99
-146 348 -160 491 -29 21 19 40 35 41 35 1 0 5 -18 9 -39 8 -54 35 -71 111
-71 108 0 100 -32 100 425 0 341 -2 397 -15 405 -23 15 -195 13 -208 -2 -6 -8
-12 -107 -14 -248 -3 -223 -4 -237 -27 -283 -35 -72 -79 -101 -161 -105 -63
-4 -69 -2 -103 28 -21 18 -41 47 -47 68 -5 21 -10 147 -10 283 0 177 -3 248
-12 257 -8 8 -46 12 -104 12 -73 0 -96 -4 -109 -17z"/>
<path d="M3122 4958 c-9 -9 -12 -113 -12 -404 l0 -393 22 -15 c16 -11 46 -16
100 -16 127 0 118 -31 118 421 0 243 -4 387 -10 400 -10 17 -22 19 -108 19
-63 0 -102 -4 -110 -12z"/>
<path d="M3510 4951 c-14 -27 -13 -144 2 -159 9 -9 68 -12 205 -12 112 0 193
-4 193 -9 0 -5 -80 -97 -177 -203 -267 -291 -243 -257 -243 -338 0 -105 -19
-100 377 -100 390 0 373 -4 373 99 0 101 2 101 -243 103 l-209 3 207 225 c113
124 211 236 216 250 15 35 6 139 -12 151 -8 5 -163 9 -346 9 -318 0 -333 -1
-343 -19z"/>
</g>
</svg>
